<svg xmlns="http://www.w3.org/2000/svg" width="1920" height="720" viewBox="0 0 1920 720" fill="none"><g clip-path="url(#clip0_828_5041)"><rect width="1920" height="720" rx="10" fill="black"></rect><g opacity="0.6" filter="url(#filter0_f_828_5041)"><path d="M1561 707C1561 808.068 1482.07 890 1384.7 890C1287.34 890 1221.5 808.068 1221.5 707C1221.5 605.932 1287.34 524 1384.7 524C1482.07 524 1561 605.932 1561 707Z" fill="#712FFF"></path></g><g opacity="0.6" filter="url(#filter1_f_828_5041)"><path d="M1153 698C1153 778.634 1087.32 844 1006.3 844C925.274 844 920 778.634 920 698C920 617.366 925.274 552 1006.3 552C1087.32 552 1153 617.366 1153 698Z" fill="#4648FF"></path></g><g opacity="0.6" filter="url(#filter2_f_828_5041)"><path d="M850 618C850 698.634 784.319 764 703.296 764C622.274 764 617 698.634 617 618C617 537.366 622.274 472 703.296 472C784.319 472 850 537.366 850 618Z" fill="#4648FF"></path></g><g opacity="0.6" filter="url(#filter3_f_828_5041)"><path d="M587 720C587 800.634 521.319 866 440.296 866C359.274 866 354 800.634 354 720C354 639.366 359.274 574 440.296 574C521.319 574 587 639.366 587 720Z" fill="#6CEFEF"></path></g></g><defs><filter id="filter0_f_828_5041" x="945.1" y="247.6" width="892.3" height="918.8" filterUnits="userSpaceOnUse" color-interpolation-filters="sRGB"><feGaussianBlur stdDeviation="138.2"></feGaussianBlur></filter><filter id="filter1_f_828_5041" x="643.6" y="275.6" width="785.8" height="844.8" filterUnits="userSpaceOnUse" color-interpolation-filters="sRGB"><feGaussianBlur stdDeviation="138.2"></feGaussianBlur></filter><filter id="filter2_f_828_5041" x="340.6" y="195.6" width="785.8" height="844.8" filterUnits="userSpaceOnUse" color-interpolation-filters="sRGB"><feGaussianBlur stdDeviation="138.2"></feGaussianBlur></filter><filter id="filter3_f_828_5041" x="77.6" y="297.6" width="785.8" height="844.8" filterUnits="userSpaceOnUse" color-interpolation-filters="sRGB"><feGaussianBlur stdDeviation="138.2"></feGaussianBlur></filter><clipPath id="clip0_828_5041"><rect width="1920" height="720" rx="10" fill="white"></rect></clipPath></defs></svg>