<svg xmlns="http://www.w3.org/2000/svg" width="1680" height="1000" viewBox="0 0 1680 1000" fill="none"><g opacity="0.3"><g filter="url(#filter0_f_1502_28597)"><path d="M2280.3 -272C2280.3 -272 2434.91 310.161 2203.61 533.158C1977.42 751.234 1612.78 395.376 1390.82 617.478C1168.93 839.499 1539.25 1171.73 1331 1405.78C1106.76 1657.78 462.998 1545.3 462.998 1545.3" stroke="url(#paint0_linear_1502_28597)" stroke-width="400" stroke-linecap="round"></path></g><g style="mix-blend-mode:soft-light" filter="url(#filter1_f_1502_28597)"><path d="M2280.3 -272C2280.3 -272 2434.91 310.161 2203.61 533.158C1977.42 751.234 1612.78 395.376 1390.82 617.478C1168.93 839.499 1539.25 1171.73 1331 1405.78C1106.76 1657.78 462.998 1545.3 462.998 1545.3" stroke="url(#paint1_linear_1502_28597)" stroke-width="400" stroke-linecap="round"></path></g><g filter="url(#filter2_f_1502_28597)"><path d="M133.901 -347.17C133.901 -347.17 484.864 86.9034 370.328 273.548C258.32 456.073 -187.707 209.679 -294.583 394.986C-401.419 580.224 40.6114 808.164 -50.0336 1001.64C-147.633 1209.95 -741.536 1169.13 -741.536 1169.13" stroke="url(#paint2_linear_1502_28597)" stroke-width="400" stroke-linecap="round"></path></g><g style="mix-blend-mode:soft-light" filter="url(#filter3_f_1502_28597)"><path d="M133.901 -347.17C133.901 -347.17 484.864 86.9034 370.328 273.548C258.32 456.073 -187.707 209.679 -294.583 394.986C-401.419 580.224 40.6114 808.164 -50.0336 1001.64C-147.633 1209.95 -741.536 1169.13 -741.536 1169.13" stroke="url(#paint3_linear_1502_28597)" stroke-width="400" stroke-linecap="round"></path></g></g><defs><filter id="filter0_f_1502_28597" x="59.668" y="-668.697" width="2674.53" height="2635.67" filterUnits="userSpaceOnUse" color-interpolation-filters="sRGB"><feGaussianBlur stdDeviation="100"></feGaussianBlur></filter><filter id="filter1_f_1502_28597" x="59.668" y="-668.697" width="2674.53" height="2635.67" filterUnits="userSpaceOnUse" color-interpolation-filters="sRGB"><feGaussianBlur stdDeviation="100"></feGaussianBlur></filter><filter id="filter2_f_1502_28597" x="-1144.35" y="-744.334" width="1940.44" height="2313.86" filterUnits="userSpaceOnUse" color-interpolation-filters="sRGB"><feGaussianBlur stdDeviation="100"></feGaussianBlur></filter><filter id="filter3_f_1502_28597" x="-1144.35" y="-744.334" width="1940.44" height="2313.86" filterUnits="userSpaceOnUse" color-interpolation-filters="sRGB"><feGaussianBlur stdDeviation="100"></feGaussianBlur></filter><linearGradient id="paint0_linear_1502_28597" x1="643.497" y1="1630.36" x2="2530.93" y2="-226.738" gradientUnits="userSpaceOnUse"><stop stop-color="#276EF1"></stop><stop offset="0.302083" stop-color="#276EF1"></stop><stop offset="0.651042" stop-color="#276EF1"></stop><stop offset="1" stop-color="#276EF1"></stop></linearGradient><linearGradient id="paint1_linear_1502_28597" x1="643.497" y1="1630.36" x2="2530.93" y2="-226.738" gradientUnits="userSpaceOnUse"><stop stop-color="#276EF1"></stop><stop offset="0.302083" stop-color="#276EF1"></stop><stop offset="0.651042" stop-color="#276EF1"></stop><stop offset="1" stop-color="#276EF1"></stop></linearGradient><linearGradient id="paint2_linear_1502_28597" x1="-554.93" y1="1221.49" x2="339.083" y2="-345.326" gradientUnits="userSpaceOnUse"><stop stop-color="#276EF1"></stop><stop offset="0.302083" stop-color="#276EF1"></stop><stop offset="0.651042" stop-color="#276EF1"></stop><stop offset="1" stop-color="#276EF1"></stop></linearGradient><linearGradient id="paint3_linear_1502_28597" x1="-554.93" y1="1221.49" x2="339.083" y2="-345.326" gradientUnits="userSpaceOnUse"><stop stop-color="#276EF1"></stop><stop offset="0.302083" stop-color="#276EF1"></stop><stop offset="0.651042" stop-color="#276EF1"></stop><stop offset="1" stop-color="#276EF1"></stop></linearGradient></defs></svg>